<svg xmlns="http://www.w3.org/2000/svg" viewBox="0 0 159 159"><defs><style>.cls-1{fill:#29abe2;}.cls-1,.cls-2{stroke:#000;stroke-miterlimit:10;}.cls-2{fill:#006837;}</style></defs><g id="Layer_3" data-name="Layer 3"><circle class="cls-1" cx="79.5" cy="79.5" r="79"/></g><g id="Layer_4" data-name="Layer 4"><path class="cls-2" d="M227.5,234.5a19.29,19.29,0,0,1,13-8c2.09-.26,10.24-2.3,13.27,3.63,1.73,3.37,5.73,12.37,5.73,14.37s-3,4-4,7,3,6,6,9,7,8,5,11-4,7-6,8-11,4-11,4l-4,2a44.77,44.77,0,0,1-7-9,65.54,65.54,0,0,1-3-6c-1.34-2.92-3.11-7-5-12a84.64,84.64,0,0,1-3-18Z" transform="translate(-226 -156)"/><path class="cls-2" d="M274.5,175.5c2-1,9-6,14-5s10,5,13,9,14,0,16-2,5,7.81,6,14.4-1,10.6-7,13.6-20.87,1-25.44,0-21.56-7-21.56-9-7-12-4-14S274.5,175.5,274.5,175.5Z" transform="translate(-226 -156)"/><path class="cls-2" d="M376.23,235.5c-6.73-2-4.73-2-10.73-8s-5-7-9-13,4-3,3-8,8-5,11-4,5,6,7,8,4,13,4,14-1.21,11-1.21,11Z" transform="translate(-226 -156)"/><path class="cls-2" d="M304.5,257.5c5.69-1,11.75-1.21,14,2,2.72,3.88-2.63,9.16,0,14,2.91,5.36,13.29,5.69,20.9,3.61,3.19-.86,6.08-3.19,10.1-7.61,10-11,11-8,11-19s1-7-9-18-12-15-21-16-18,2.32-24.5,5.66-20.5,6.34-19.5,12.34c1.31,7.85-6,12.37-7.5,21.23-1.83,10.7.48,13,1.5,13.77s2.11.55,4,2a15.92,15.92,0,0,1,4,5c1.54,2.65,1.17,3,2,4,2.43,2.85,9,3.49,11,1,3.41-4.21-7.84-15.14-4-21C298.93,258.32,301.91,257.67,304.5,257.5Z" transform="translate(-226 -156)"/><path class="cls-2" d="M270.5,215.5c-1,4-9.92,1.58-3.46,6.79s7.1,5.92,11.28,2.06,6.18-4.85,2.18-6.85a24.43,24.43,0,0,0-9.37-2Z" transform="translate(-226 -156)"/></g></svg>