<svg xmlns="http://www.w3.org/2000/svg" viewBox="0 0 306 195.73"><defs><style>.cls-1{fill:#999;}.cls-2{fill:none;stroke:#000;stroke-miterlimit:10;}</style></defs><g id="Layer_3" data-name="Layer 3"><ellipse class="cls-1" cx="87" cy="102.5" rx="87" ry="55.5"/><ellipse class="cls-1" cx="171" cy="106.5" rx="78" ry="51.5"/><ellipse class="cls-1" cx="228" cy="102.5" rx="78" ry="51.5"/><ellipse class="cls-1" cx="150" cy="51.5" rx="78" ry="51.5"/><path class="cls-2" d="M200,368" transform="translate(-149 -187)"/><path d="M216,352" transform="translate(-149 -187)"/><line class="cls-2" x1="70" y1="169" x2="57" y2="183"/><line class="cls-2" x1="111.68" y1="165" x2="99.68" y2="181"/><line class="cls-2" x1="89" y1="171" x2="70" y2="195.42"/><line class="cls-2" x1="139.55" y1="158" x2="124.45" y2="181"/><line class="cls-2" x1="174" y1="160.97" x2="163" y2="187"/><line class="cls-2" x1="153.1" y1="160.97" x2="145.74" y2="176"/><line class="cls-2" x1="201.19" y1="154" x2="191" y2="178"/><line class="cls-2" x1="183" y1="163" x2="179.03" y2="181"/><line class="cls-2" x1="228" y1="160.97" x2="218.9" y2="178"/><line class="cls-2" x1="215.42" y1="154" x2="208.06" y2="173.98"/></g></svg>